<?xml version="1.0" standalone="no"?>
<!DOCTYPE svg PUBLIC "-//W3C//DTD SVG 20010904//EN"
 "http://www.w3.org/TR/2001/REC-SVG-20010904/DTD/svg10.dtd">
<svg version="1.0" xmlns="http://www.w3.org/2000/svg"
 width="500.000000pt" height="500.000000pt" viewBox="0 0 500.000000 500.000000"
 preserveAspectRatio="xMidYMid meet">
<metadata>
Created by potrace 1.14, written by Peter Selinger 2001-2017
</metadata>
<g transform="translate(0.000000,500.000000) scale(0.100000,-0.100000)"
fill="#000000" stroke="none">
<path d="M2368 4775 c-2 -2 -32 -6 -68 -9 -36 -2 -65 -5 -65 -6 0 -1 -16 -3
-35 -4 -46 -4 -123 -17 -130 -21 -3 -2 -25 -6 -49 -10 -77 -11 -241 -62 -376
-116 -16 -7 -32 -13 -35 -14 -29 -8 -130 -60 -130 -67 0 -5 -4 -7 -9 -3 -5 3
-15 0 -23 -7 -7 -7 -20 -14 -28 -16 -8 -2 -18 -9 -22 -15 -4 -7 -8 -8 -8 -4 0
7 -55 -27 -70 -43 -3 -3 -11 -6 -18 -8 -33 -6 -266 -184 -362 -276 -50 -48
-155 -160 -199 -211 -68 -80 -236 -332 -243 -365 -2 -8 -6 -17 -9 -20 -10 -8
-80 -150 -74 -150 3 0 -1 -10 -10 -23 -8 -13 -12 -27 -8 -30 3 -4 2 -7 -4 -7
-8 0 -18 -24 -38 -90 -1 -3 -5 -12 -8 -20 -17 -38 -47 -144 -42 -148 3 -3 1
-10 -5 -17 -5 -6 -11 -28 -14 -48 -2 -20 -7 -40 -10 -45 -11 -19 -25 -102 -43
-267 -9 -85 -9 -359 0 -435 14 -121 19 -157 28 -195 5 -22 11 -49 13 -60 11
-65 19 -96 27 -101 5 -3 7 -9 4 -14 -3 -5 4 -35 15 -67 11 -31 20 -65 20 -75
0 -10 5 -18 12 -18 6 0 9 -3 5 -6 -6 -6 78 -214 91 -224 4 -3 9 -14 10 -25 2
-11 11 -31 21 -45 9 -14 25 -42 35 -62 11 -21 24 -38 29 -38 6 0 8 -3 4 -6
-13 -13 146 -240 212 -303 20 -19 29 -31 21 -26 -8 4 10 -18 40 -50 30 -32 60
-64 66 -71 7 -7 14 -10 18 -7 3 4 6 1 6 -5 0 -15 81 -90 182 -167 46 -36 96
-74 112 -86 15 -12 34 -22 42 -22 7 0 11 -4 8 -9 -3 -4 -1 -8 4 -8 5 0 25 -10
43 -23 19 -13 59 -36 89 -52 30 -16 64 -36 74 -45 17 -13 18 -13 11 0 -7 13
-6 13 11 0 27 -21 84 -52 84 -46 0 3 15 -2 33 -12 28 -16 120 -54 140 -58 4
-1 9 -3 12 -4 3 -1 8 -3 13 -5 4 -1 14 -4 22 -8 21 -8 84 -27 106 -32 10 -2
46 -11 78 -20 32 -8 61 -13 64 -10 3 3 10 1 16 -4 6 -5 34 -12 61 -16 28 -4
61 -8 75 -10 14 -2 48 -6 75 -10 78 -10 363 -13 435 -4 36 4 94 11 130 15 36
3 75 10 88 15 12 5 22 6 22 3 0 -4 6 -1 13 5 8 6 16 9 19 6 3 -3 47 6 99 20
52 14 101 28 109 30 8 2 33 10 55 18 22 8 56 20 75 27 36 12 41 14 120 49 25
10 49 19 54 19 5 0 12 4 15 9 3 4 29 19 56 33 68 34 167 92 183 107 7 7 17 13
21 13 5 0 21 12 36 28 16 15 25 20 20 12 -5 -8 6 -3 24 13 18 15 36 27 39 27
4 0 23 15 42 33 19 18 47 41 62 51 15 10 25 22 22 27 -3 5 -1 8 5 7 15 -4 201
183 194 195 -3 6 -2 8 3 5 5 -3 15 0 22 8 7 8 11 14 8 14 -2 0 10 15 27 34 42
45 91 106 96 119 2 6 12 20 23 31 10 11 18 25 18 32 0 7 4 14 8 16 10 3 87
131 117 193 11 22 23 42 28 43 4 2 7 8 7 14 0 6 16 44 35 85 19 41 38 87 41
102 4 14 11 31 15 37 5 6 10 19 12 30 1 10 6 24 9 30 4 6 9 21 12 35 3 13 14
56 24 94 21 73 48 194 57 255 26 177 26 528 -1 650 -2 14 -7 39 -9 55 -16 130
-116 475 -137 475 -4 0 -8 8 -8 18 0 10 -13 46 -30 80 -16 34 -30 65 -29 68 0
4 -3 10 -8 13 -4 3 -16 22 -25 41 -42 85 -160 268 -203 314 -14 15 -25 30 -25
33 0 3 -10 14 -22 24 -11 11 -18 19 -15 19 4 0 -23 30 -58 68 -36 37 -65 70
-65 75 0 4 -7 7 -15 7 -8 0 -15 6 -16 13 -1 28 -230 209 -389 308 -115 71
-270 152 -270 141 0 -4 -4 -2 -8 4 -4 6 -27 18 -52 28 -79 32 -270 95 -270 89
0 -3 -7 0 -15 7 -9 7 -18 10 -21 7 -3 -3 -18 -1 -33 4 -14 6 -37 12 -51 14
-14 2 -36 7 -50 10 -25 5 -101 17 -190 31 -46 6 -377 14 -382 9z m407 -88 c11
-3 40 -8 65 -12 857 -131 1560 -756 1794 -1595 8 -30 20 -77 26 -105 21 -98
20 -91 39 -235 11 -79 11 -408 1 -476 -4 -27 -10 -72 -14 -101 -21 -176 -105
-442 -203 -638 -34 -68 -142 -255 -153 -265 -3 -3 -31 -39 -62 -80 -31 -41
-67 -88 -80 -104 -39 -50 -200 -209 -258 -256 -30 -25 -60 -50 -67 -56 -6 -6
-51 -38 -100 -70 -48 -32 -89 -62 -91 -66 -2 -5 -10 -8 -18 -8 -8 0 -14 -4
-14 -10 0 -5 -7 -10 -16 -10 -9 0 -28 -9 -44 -20 -84 -60 -464 -210 -570 -225
-8 -1 -53 -9 -100 -18 -47 -9 -112 -19 -145 -22 -33 -4 -71 -9 -85 -11 -39 -6
-289 -6 -350 1 -54 6 -102 12 -170 21 -68 9 -266 56 -340 81 -371 123 -717
350 -962 630 -20 23 -38 41 -40 40 -2 -1 -2 0 -1 1 1 2 -19 29 -44 60 -112
137 -245 365 -313 537 -33 82 -77 212 -85 249 -2 12 -11 50 -20 86 -16 65 -19
78 -30 160 -4 25 -9 56 -12 70 -10 44 -11 432 -2 500 5 36 12 83 15 105 3 22
10 60 16 85 5 25 12 56 14 70 10 51 72 254 94 305 37 86 116 251 122 253 5 2
8 8 8 12 0 12 74 131 122 197 21 29 38 58 38 64 0 7 3 9 7 5 4 -3 12 2 17 13
39 71 233 264 404 403 106 86 305 199 494 282 70 31 251 91 303 100 11 2 39 9
62 15 23 6 61 14 85 17 24 3 49 7 56 9 7 3 45 7 85 11 40 3 74 8 77 11 6 5
419 -4 445 -10z"/>
<path d="M2460 3420 c-19 -4 -75 -17 -125 -28 -49 -12 -105 -24 -124 -27 -19
-3 -37 -8 -41 -10 -3 -2 -17 -6 -31 -8 -13 -3 -116 -26 -229 -51 -113 -25
-215 -48 -228 -51 -13 -2 -31 -6 -40 -9 -9 -3 -28 -7 -42 -10 -14 -2 -43 -9
-65 -14 -32 -9 -195 -45 -390 -87 -11 -3 -32 -7 -47 -11 -15 -3 -30 -5 -33 -5
-2 0 -19 -5 -37 -10 -18 -5 -46 -12 -63 -14 -16 -3 -43 -10 -60 -14 -16 -5
-58 -15 -92 -21 -36 -7 -63 -18 -63 -25 0 -23 451 -915 463 -915 65 -3 2580
-1 2582 2 7 8 464 922 462 925 -2 1 -16 4 -32 7 -17 3 -102 22 -190 42 -88 20
-169 38 -180 40 -11 2 -141 31 -290 64 -148 34 -281 63 -295 66 -14 2 -83 18
-155 34 -71 16 -139 32 -150 34 -42 9 -171 38 -185 41 -8 2 -49 11 -90 20 -90
20 -97 21 -135 30 -54 12 -60 13 -95 5z m80 -314 c0 2 14 -2 30 -11 17 -9 30
-13 30 -10 0 3 8 1 18 -4 11 -6 30 -12 43 -15 39 -7 342 -97 361 -107 10 -5
23 -9 30 -9 7 0 55 -13 108 -30 52 -16 105 -31 117 -33 12 -2 26 -6 29 -10 4
-4 -46 -61 -112 -128 -65 -67 -124 -127 -131 -134 -7 -7 -9 -16 -5 -20 4 -4 0
-5 -8 -3 -8 1 -14 -2 -13 -7 3 -16 -19 -17 -542 -17 -474 1 -539 2 -530 10 7
7 -80 89 -90 84 -5 -3 -7 -2 -3 3 11 11 -12 36 -26 28 -6 -3 -8 -3 -4 1 4 5
-28 44 -70 88 -42 44 -78 83 -80 88 -3 8 71 33 166 55 17 4 32 11 32 15 0 4 6
7 13 6 19 -2 292 78 295 86 2 5 7 6 11 4 7 -5 259 69 268 78 2 2 18 0 34 -4
16 -5 29 -7 29 -4z"/>
<path d="M2478 3015 c-3 -3 -14 -8 -24 -10 -56 -13 -110 -29 -114 -34 -3 -3
-12 -7 -20 -7 -16 -2 -411 -117 -448 -131 l-24 -9 33 -32 c18 -18 36 -32 41
-32 4 0 8 -6 8 -14 0 -30 43 -25 212 24 95 29 180 54 188 57 48 19 100 26 100
15 0 -28 97 -33 136 -7 23 15 35 13 250 -51 l226 -66 46 43 c63 59 64 63 39
72 -29 11 -158 48 -177 50 -8 1 -17 5 -20 8 -4 5 -50 19 -110 33 -8 2 -42 12
-75 22 -33 10 -64 19 -70 20 -5 0 -17 4 -25 7 -23 9 -151 47 -159 47 -4 0 -10
-2 -13 -5z"/>
<path d="M4085 2523 c-126 -252 -236 -469 -246 -483 l-17 -25 -1328 1 c-731 1
-1332 2 -1335 3 -3 0 -16 23 -29 51 -13 27 -27 50 -32 50 -5 0 -7 4 -4 8 4 7
-50 121 -135 282 -12 25 -23 47 -24 50 -1 9 -227 455 -236 466 -5 6 -7 13 -4
16 3 3 -1 11 -10 18 -13 11 -15 0 -15 -92 0 -89 3 -111 24 -154 13 -27 34 -71
46 -99 30 -68 144 -311 190 -410 21 -44 65 -138 98 -210 33 -71 79 -169 101
-218 l41 -87 392 2 392 3 -1 95 0 95 78 1 c69 0 79 -2 80 -18 1 -23 1 -192 0
-218 -1 -13 -8 -20 -21 -20 -15 0 -20 -7 -20 -25 0 -14 3 -25 8 -26 30 -4 825
-3 831 1 4 3 10 13 14 23 5 13 0 20 -18 27 -24 9 -24 10 -22 132 l2 123 75 0
75 0 2 -85 c1 -47 2 -91 2 -97 1 -10 86 -13 389 -13 l388 0 19 38 c10 20 19
39 20 42 0 3 16 33 33 68 18 34 30 67 27 72 -4 6 -1 10 5 10 6 0 14 10 19 23
5 12 41 90 81 172 40 83 90 188 111 235 22 47 44 92 50 100 5 8 12 22 15 30 3
8 34 71 67 140 l61 125 4 109 c2 59 0 112 -5 117 -6 6 -97 -166 -238 -448z
m-1754 -657 c4 -55 4 -212 1 -223 -3 -8 -24 -13 -58 -13 -52 0 -54 1 -55 28
-4 174 -3 222 6 226 6 1 31 3 58 3 41 0 47 -2 48 -21z m223 -106 l1 -125 -58
-3 c-49 -2 -57 0 -58 15 -1 26 -1 194 0 219 1 18 7 20 58 20 l57 -1 0 -125z
m217 116 c3 -42 5 -223 1 -233 -2 -7 -25 -12 -58 -12 -44 0 -54 4 -55 17 0 25
-1 172 0 208 1 31 1 32 56 32 34 0 55 -5 56 -12z"/>
</g>
</svg>
